<svg baseProfile="tiny" xmlns="http://www.w3.org/2000/svg" width="360" height="30" preserveAspectRatio="xMaxYMax meet" viewBox="0 0 360 30" ><path fill="#fff" d="M27.558 2.419c-1.543-1.54-3.575-2.419-5.577-2.419-1.689 0-3.242.626-4.374 1.76l-4.561 4.598-.049.035-.02.026h.01l-9.692 9.759c-.444.443-.767.996-.947 1.599l-2.202 7.976c0 .021-.146.649-.146.966 0 1.811 1.475 3.281 3.286 3.281.361 0 1.06-.171 1.084-.176l7.944-2.088c.605-.181 1.162-.507 1.602-.952l14.306-14.423c2.607-2.604 2.314-6.97-.664-9.942m-12.548 19.889c-.068-.846-.312-1.676-.664-2.463l8.856-8.862c.547 1.713.264 3.504-.928 4.692l-.02.019.01.012-7.245 7.304c.01-.236.02-.463-.009-.702m-1.143-3.317c-.342-.576-.742-1.13-1.24-1.622-.566-.571-1.23-1.02-1.914-1.398l8.935-8.935c.703.312 1.377.754 1.973 1.348.508.504.898 1.071 1.201 1.659l-8.955 8.948zm-4.034-3.464c-.869-.35-1.777-.548-2.695-.562l7.227-7.275c1.104-1.078 2.715-1.388 4.296-.996l-8.828 8.833zm-5.927 12.479c-.103.025-.42.105-.635.119-.771-.007-1.396-.635-1.396-1.406.01-.154.073-.429.098-.527l.986-3.576c1.069-.028 2.227.389 3.125 1.298.928.919 1.357 2.096 1.309 3.179l-3.487.913zm4.414-1.158c-.02-1.259-.537-2.566-1.572-3.598-.977-.978-2.251-1.542-3.525-1.594l.933-3.38c.068-.228.2-.447.366-.642 1.885-1.348 4.775-.949 6.787 1.062 2.119 2.126 2.451 5.235.811 7.095-.107.056-.215.112-.332.147l-3.468.91zm18.583-15.811l-1.582 1.591c0-.211.029-.415 0-.633-.156-1.812-1.006-3.567-2.383-4.938-1.523-1.528-3.545-2.405-5.556-2.41l1.552-1.565c.781-.776 1.865-1.207 3.047-1.207 1.514 0 3.057.682 4.248 1.873 1.123 1.116 1.787 2.503 1.885 3.907.088 1.307-.342 2.51-1.211 3.382"/><g transform="translate(40)"><path fill="#282828" d="M27.558 2.419c-1.543-1.54-3.575-2.419-5.577-2.419-1.689 0-3.242.626-4.374 1.76l-4.561 4.598-.049.035-.02.026h.01l-9.692 9.759c-.444.443-.767.996-.947 1.599l-2.202 7.976c0 .021-.146.649-.146.966 0 1.811 1.475 3.281 3.286 3.281.361 0 1.06-.171 1.084-.176l7.944-2.088c.605-.181 1.162-.507 1.602-.952l14.306-14.423c2.607-2.604 2.314-6.97-.664-9.942m-12.548 19.889c-.068-.846-.312-1.676-.664-2.463l8.856-8.862c.547 1.713.264 3.504-.928 4.692l-.02.019.01.012-7.245 7.304c.01-.236.02-.463-.009-.702m-1.143-3.317c-.342-.576-.742-1.13-1.24-1.622-.566-.571-1.23-1.02-1.914-1.398l8.935-8.935c.703.312 1.377.754 1.973 1.348.508.504.898 1.071 1.201 1.659l-8.955 8.948zm-4.034-3.464c-.869-.35-1.777-.548-2.695-.562l7.227-7.275c1.104-1.078 2.715-1.388 4.296-.996l-8.828 8.833zm-5.927 12.479c-.103.025-.42.105-.635.119-.771-.007-1.396-.635-1.396-1.406.01-.154.073-.429.098-.527l.986-3.576c1.069-.028 2.227.389 3.125 1.298.928.919 1.357 2.096 1.309 3.179l-3.487.913zm4.414-1.158c-.02-1.259-.537-2.566-1.572-3.598-.977-.978-2.251-1.542-3.525-1.594l.933-3.38c.068-.228.2-.447.366-.642 1.885-1.348 4.775-.949 6.787 1.062 2.119 2.126 2.451 5.235.811 7.095-.107.056-.215.112-.332.147l-3.468.91zm18.583-15.811l-1.582 1.591c0-.211.029-.415 0-.633-.156-1.812-1.006-3.567-2.383-4.938-1.523-1.528-3.545-2.405-5.556-2.41l1.552-1.565c.781-.776 1.865-1.207 3.047-1.207 1.514 0 3.057.682 4.248 1.873 1.123 1.116 1.787 2.503 1.885 3.907.088 1.307-.342 2.51-1.211 3.382"/></g><g transform="translate(80)"><g fill="#fff"><path d="M15 0c-6.321 0-13.125 1.906-13.125 6.094v17.812c0 4.186 6.804 6.094 13.125 6.094s13.125-1.908 13.125-6.094v-17.812c0-4.188-6.804-6.094-13.125-6.094zm11.25 23.906c0 2.33-5.037 4.219-11.25 4.219s-11.25-1.889-11.25-4.219v-3.503c1.937 1.996 6.61 3.034 11.25 3.034s9.312-1.038 11.25-3.034v3.503zm0-5.625h-.004l.004.029c0 2.314-5.037 4.189-11.25 4.189s-11.25-1.875-11.25-4.189l.003-.029h-.003v-3.503c1.937 1.996 6.61 3.034 11.25 3.034s9.312-1.038 11.25-3.034v3.503zm0-5.625h-.004l.004.029c0 2.314-5.037 4.189-11.25 4.189s-11.25-1.875-11.25-4.189l.003-.029h-.003v-3.22c2.458 1.871 6.962 2.752 11.25 2.752s8.793-.881 11.25-2.752v3.22zm-11.25-2.344c-6.213 0-11.25-1.89-11.25-4.219 0-2.331 5.037-4.219 11.25-4.219s11.25 1.888 11.25 4.219c0 2.33-5.037 4.219-11.25 4.219z"/><circle cx="23.438" cy="24.375" r=".938"/><circle cx="23.438" cy="18.75" r=".938"/><circle cx="23.438" cy="13.125" r=".938"/></g></g><g transform="translate(120)"><g fill="#fff"><path d="M15 0c-6.321 0-13.125 1.906-13.125 6.094v17.812c0 4.186 6.804 6.094 13.125 6.094 6.32 0 13.125-1.908 13.125-6.094v-17.812c0-4.188-6.805-6.094-13.125-6.094zm11.25 23.906c0 2.33-5.037 4.219-11.25 4.219s-11.25-1.889-11.25-4.219v-3.504c1.937 1.996 6.61 3.035 11.25 3.035 4.641 0 9.312-1.039 11.25-3.035v3.504zm0-5.625h-.004l.004.029c0 2.313-5.037 4.188-11.25 4.188s-11.25-1.874-11.25-4.187l.003-.029h-.003v-3.503c1.937 1.996 6.61 3.035 11.25 3.035 4.641 0 9.312-1.039 11.25-3.035v3.502zm0-5.625h-.004l.004.029c0 2.314-5.037 4.189-11.25 4.189s-11.25-1.875-11.25-4.189l.003-.029h-.003v-3.22c2.458 1.871 6.962 2.752 11.25 2.752s8.793-.881 11.25-2.752v3.22zm-11.25-2.344c-6.213 0-11.25-1.89-11.25-4.219 0-2.331 5.037-4.219 11.25-4.219s11.25 1.888 11.25 4.219c0 2.33-5.037 4.219-11.25 4.219z"/><circle cx="23.438" cy="24.375" r=".938"/><circle cx="23.438" cy="18.75" r=".938"/><circle cx="23.438" cy="13.125" r=".938"/></g></g><g transform="translate(160)"><g fill="#fff"><path d="M20.627 0c-5.177 0-9.374 4.2-9.374 9.375 0 1.205.252 2.346.668 3.403l-11.388 11.388c-.328.33-.533.645-.533 1.146v2.812c0 1.003.871 1.876 1.875 1.876h2.812c.503 0 .82-.199 1.151-.531l1.344-1.344h2.197c1.033 0 1.875-.84 1.875-1.875v-1.877h1.875c1.034 0 1.875-.838 1.875-1.873v-2.197l2.221-2.221c1.057.414 2.197.668 3.403.668 5.175 0 9.373-4.198 9.373-9.375-.001-5.175-4.199-9.375-9.374-9.375zm0 16.875c-1.389 0-2.674-.404-3.787-1.063l-.322.325-1.055 1.055-1.787 1.785c-.351.352-.548.83-.548 1.326v2.197h-1.875c-1.035 0-1.875.84-1.875 1.873v1.877h-2.197c-.497 0-.974.199-1.325.551l-1.329 1.328-2.648-.004-.003-2.672 10.934-10.915.001.002 1.376-1.378c-.659-1.113-1.061-2.399-1.061-3.787 0-4.141 3.357-7.5 7.5-7.5 4.141 0 7.498 3.359 7.498 7.5.001 4.141-3.356 7.5-7.497 7.5zM26.078 7.725c-1.051-1.465-2.33-2.742-3.801-3.801-.24-.171-.55-.218-.827-.117-1.302.457-2.192 1.347-2.649 2.65-.035.096-.052.199-.052.298 0 .19.059.373.17.53 1.055 1.467 2.336 2.745 3.8 3.799.239.174.548.218.826.12 1.303-.455 2.194-1.348 2.651-2.651.035-.096.052-.199.052-.3 0-.186-.059-.371-.17-.528zm-2.811 2.599c-1.387-.999-2.594-2.206-3.582-3.558.363-1.034 1.043-1.713 2.046-2.082 1.386.999 2.591 2.204 3.577 3.572-.367 1.027-1.044 1.702-2.041 2.068z"/></g></g><g transform="translate(200)"><g fill="#282828"><path d="M20.627 0c-5.177 0-9.374 4.2-9.374 9.375 0 1.205.252 2.346.668 3.403l-11.388 11.388c-.328.33-.533.645-.533 1.146v2.812c0 1.003.871 1.876 1.875 1.876h2.812c.503 0 .82-.199 1.151-.531l1.344-1.344h2.197c1.033 0 1.875-.84 1.875-1.875v-1.877h1.875c1.034 0 1.875-.838 1.875-1.873v-2.197l2.221-2.221c1.057.414 2.197.668 3.403.668 5.175 0 9.373-4.198 9.373-9.375-.001-5.175-4.199-9.375-9.374-9.375zm0 16.875c-1.389 0-2.674-.404-3.787-1.063l-.322.325-1.055 1.055-1.787 1.785c-.351.352-.548.83-.548 1.326v2.197h-1.875c-1.035 0-1.875.84-1.875 1.873v1.877h-2.197c-.497 0-.974.199-1.325.551l-1.329 1.328-2.648-.004-.003-2.672 10.934-10.915.001.002 1.376-1.378c-.659-1.113-1.061-2.399-1.061-3.787 0-4.141 3.357-7.5 7.5-7.5 4.141 0 7.498 3.359 7.498 7.5.001 4.141-3.356 7.5-7.497 7.5zM26.078 7.725c-1.051-1.465-2.33-2.742-3.801-3.801-.24-.171-.55-.218-.827-.117-1.302.457-2.192 1.347-2.649 2.65-.035.096-.052.199-.052.298 0 .19.059.373.17.53 1.055 1.467 2.336 2.745 3.8 3.799.239.174.548.218.826.12 1.303-.455 2.194-1.348 2.651-2.651.035-.096.052-.199.052-.3 0-.186-.059-.371-.17-.528zm-2.811 2.599c-1.387-.999-2.594-2.206-3.582-3.558.363-1.034 1.043-1.713 2.046-2.082 1.386.999 2.591 2.204 3.577 3.572-.367 1.027-1.044 1.702-2.041 2.068z"/></g></g><g transform="translate(240)"><path fill="#fff" d="M29.166 26.565c-.188-.126-3.607-2.367-8.693-3.468 1.864-2.365 3.061-5.543 3.572-7.659.705-2.933.431-8.67-2.387-12.246-1.642-2.088-3.946-3.192-6.658-3.192s-5.016 1.104-6.659 3.193c-2.817 3.576-3.091 9.313-2.385 12.246.511 2.116 1.708 5.293 3.572 7.659-5.086 1.101-8.505 3.342-8.693 3.468-.687.458-.994 1.312-.753 2.103.237.789.967 1.331 1.793 1.331h26.25c.826 0 1.556-.542 1.794-1.332.24-.79-.066-1.645-.753-2.103m-10.165-4.629l-.309.389c-2.234 2.568-5.15 2.568-7.385 0l-.309-.389c-2.609-3.309-3.907-7.683-3.348-11.858.512-4.012 2.812-8.203 7.35-8.203 4.537 0 6.838 4.191 7.349 8.203.555 4.175-.735 8.548-3.348 11.858m-17.126 6.189c.13-.087 3.305-2.168 8.05-3.194l2.328-.504c.831.546 1.744.886 2.747.886s1.916-.34 2.747-.886l2.328.504c4.709 1.017 7.873 3.077 8.05 3.194h-26.25z"/></g><g transform="translate(280)"><path fill="#fff" d="M29.166 26.564c-.188-.125-3.607-2.366-8.693-3.467 1.864-2.365 3.062-5.543 3.572-7.66.705-2.933.432-8.67-2.387-12.246-1.642-2.087-3.946-3.191-6.658-3.191s-5.016 1.104-6.659 3.193c-2.817 3.576-3.091 9.313-2.385 12.246.511 2.116 1.708 5.293 3.572 7.659-5.086 1.102-8.505 3.342-8.693 3.469-.687.457-.994 1.312-.753 2.103.237.788.967 1.33 1.793 1.33h26.25c.826 0 1.557-.542 1.794-1.332.24-.79-.065-1.645-.753-2.104m-10.165-4.628l-.31.39c-2.233 2.567-5.149 2.567-7.384 0l-.309-.39c-2.609-3.309-3.907-7.683-3.348-11.857.512-4.013 2.812-8.204 7.35-8.204 4.537 0 6.838 4.191 7.35 8.203.554 4.175-.736 8.548-3.349 11.858m-17.126 6.189c.13-.087 3.305-2.168 8.05-3.193l2.328-.505c.831.546 1.744.886 2.747.886s1.916-.34 2.747-.886l2.328.505c4.709 1.017 7.873 3.076 8.05 3.193h-26.25z"/></g><g transform="translate(320)"><rect y="4" fill-rule="evenodd" clip-rule="evenodd" fill="#fff" width="30" height="4"/><rect y="13" fill-rule="evenodd" clip-rule="evenodd" fill="#fff" width="30" height="4"/><rect y="22" fill-rule="evenodd" clip-rule="evenodd" fill="#fff" width="30" height="4"/></g></svg>